<?xml version="1.0" standalone="no"?>
<!DOCTYPE svg PUBLIC "-//W3C//DTD SVG 20010904//EN"
 "http://www.w3.org/TR/2001/REC-SVG-20010904/DTD/svg10.dtd">
<svg version="1.0" xmlns="http://www.w3.org/2000/svg"
 width="64.000000pt" height="57.000000pt" viewBox="0 0 64.000000 57.000000"
 preserveAspectRatio="xMidYMid meet">

<g transform="translate(0.000000,57.000000) scale(0.100000,-0.100000)"
fill="#000000" stroke="none">
<path d="M277 536 c-159 -44 -237 -218 -163 -364 26 -51 82 -102 136 -124 44
-18 141 -13 190 9 97 43 149 125 150 234 0 169 -152 289 -313 245z m172 -36
c80 -41 124 -117 124 -215 1 -192 -215 -298 -373 -184 -161 117 -109 370 85
420 43 11 122 1 164 -21z"/>
<path d="M240 476 c-65 -34 -103 -92 -108 -165 -2 -32 1 -75 8 -95 55 -168
298 -185 384 -26 24 45 28 60 24 113 -10 156 -170 246 -308 173z m203 -27
c112 -74 116 -243 7 -315 -92 -61 -209 -37 -270 54 -29 43 -31 53 -28 114 3
57 8 73 34 105 41 51 87 73 155 73 45 0 64 -6 102 -31z"/>
<path d="M340 436 c0 -16 129 -225 134 -217 8 12 -111 221 -125 221 -5 0 -9
-2 -9 -4z"/>
<path d="M257 330 c-60 -105 -62 -110 -48 -110 5 0 31 38 57 85 l48 85 27 -47
c28 -48 28 -48 7 -53 -37 -9 -33 -30 6 -30 29 0 38 -5 51 -30 9 -17 22 -30 30
-30 13 0 -23 72 -94 187 l-27 43 -57 -100z"/>
<path d="M271 274 c-24 -41 -41 -77 -39 -79 3 -3 26 2 52 11 26 9 60 14 75 12
21 -3 28 -1 24 9 -3 8 -23 13 -55 13 l-50 0 25 43 c14 24 22 48 19 54 -4 7
-26 -20 -51 -63z"/>
</g>
</svg>
